<svg xmlns="http://www.w3.org/2000/svg" xmlns:xlink="http://www.w3.org/1999/xlink" width="500" zoomAndPan="magnify" viewBox="0 0 375 374.999991" height="500" preserveAspectRatio="xMidYMid meet" version="1.0"><defs><g/><clipPath id="2e210b6ceb"><path d="M 121.605469 96.21875 L 253.605469 96.21875 L 253.605469 195.21875 L 121.605469 195.21875 Z M 121.605469 96.21875 " clip-rule="nonzero"/></clipPath></defs><g clip-path="url(#2e210b6ceb)"><path fill="#ff1616" d="M 245.21875 110.910156 L 172.0625 110.910156 L 172.0625 98.820312 C 172.0625 98.488281 171.996094 98.167969 171.867188 97.859375 C 171.742188 97.550781 171.558594 97.277344 171.320312 97.039062 C 171.085938 96.804688 170.8125 96.621094 170.503906 96.492188 C 170.195312 96.367188 169.871094 96.300781 169.539062 96.300781 L 124.128906 96.300781 C 123.796875 96.300781 123.472656 96.367188 123.164062 96.492188 C 122.855469 96.621094 122.582031 96.804688 122.347656 97.039062 C 122.109375 97.277344 121.925781 97.550781 121.800781 97.859375 C 121.671875 98.167969 121.605469 98.488281 121.605469 98.820312 L 121.605469 192.589844 C 121.605469 192.925781 121.671875 193.246094 121.800781 193.554688 C 121.925781 193.863281 122.109375 194.136719 122.347656 194.371094 C 122.582031 194.609375 122.855469 194.789062 123.164062 194.917969 C 123.472656 195.046875 123.796875 195.109375 124.128906 195.109375 L 169.539062 195.109375 C 169.871094 195.109375 170.195312 195.046875 170.503906 194.917969 C 170.8125 194.789062 171.085938 194.609375 171.320312 194.371094 C 171.558594 194.136719 171.742188 193.863281 171.867188 193.554688 C 171.996094 193.246094 172.0625 192.925781 172.0625 192.589844 L 172.0625 174.84375 L 197.730469 174.84375 C 197.355469 177.605469 196.574219 180.246094 195.394531 182.769531 C 194.652344 182.972656 193.964844 183.289062 193.324219 183.71875 C 192.6875 184.148438 192.132812 184.667969 191.664062 185.277344 C 191.195312 185.886719 190.839844 186.558594 190.589844 187.285156 C 190.339844 188.011719 190.214844 188.761719 190.210938 189.527344 L 190.210938 192.570312 C 190.210938 192.90625 190.277344 193.226562 190.402344 193.535156 C 190.53125 193.84375 190.714844 194.117188 190.949219 194.351562 C 191.1875 194.589844 191.460938 194.769531 191.769531 194.898438 C 192.078125 195.027344 192.398438 195.089844 192.734375 195.089844 L 216.699219 195.089844 C 217.035156 195.089844 217.355469 195.027344 217.664062 194.898438 C 217.972656 194.769531 218.246094 194.589844 218.484375 194.351562 C 218.71875 194.117188 218.902344 193.84375 219.03125 193.535156 C 219.160156 193.226562 219.222656 192.90625 219.222656 192.570312 L 219.222656 189.527344 C 219.222656 188.757812 219.097656 188.007812 218.847656 187.28125 C 218.601562 186.550781 218.246094 185.878906 217.777344 185.269531 C 217.308594 184.65625 216.757812 184.132812 216.117188 183.703125 C 215.480469 183.273438 214.789062 182.957031 214.042969 182.75 C 212.863281 180.226562 212.085938 177.585938 211.710938 174.828125 L 245.21875 174.828125 C 245.765625 174.824219 246.3125 174.773438 246.847656 174.664062 C 247.386719 174.558594 247.910156 174.398438 248.414062 174.191406 C 248.921875 173.980469 249.402344 173.722656 249.859375 173.417969 C 250.316406 173.113281 250.738281 172.765625 251.125 172.378906 C 251.515625 171.992188 251.859375 171.570312 252.164062 171.117188 C 252.46875 170.660156 252.726562 170.179688 252.9375 169.671875 C 253.148438 169.167969 253.304688 168.644531 253.414062 168.109375 C 253.519531 167.570312 253.574219 167.027344 253.574219 166.480469 L 253.574219 119.238281 C 253.574219 118.691406 253.519531 118.148438 253.410156 117.613281 C 253.300781 117.074219 253.144531 116.554688 252.933594 116.050781 C 252.722656 115.546875 252.464844 115.066406 252.160156 114.609375 C 251.851562 114.15625 251.507812 113.734375 251.121094 113.347656 C 250.730469 112.964844 250.308594 112.617188 249.855469 112.3125 C 249.398438 112.011719 248.917969 111.753906 248.410156 111.546875 C 247.90625 111.335938 247.382812 111.175781 246.847656 111.070312 C 246.308594 110.964844 245.765625 110.910156 245.21875 110.910156 Z M 245.21875 115.949219 C 245.65625 115.949219 246.078125 116.035156 246.484375 116.203125 C 246.890625 116.371094 247.25 116.609375 247.558594 116.917969 C 247.867188 117.230469 248.109375 117.585938 248.277344 117.992188 C 248.445312 118.394531 248.527344 118.816406 248.53125 119.257812 L 248.53125 157.523438 L 172.0625 157.523438 L 172.0625 115.949219 Z M 167.015625 190.070312 L 126.652344 190.070312 L 126.652344 101.339844 L 167.015625 101.339844 Z M 214.175781 190.070312 L 195.257812 190.070312 L 195.257812 189.527344 C 195.257812 189.265625 195.308594 189.011719 195.410156 188.765625 C 195.507812 188.523438 195.652344 188.304688 195.839844 188.117188 C 196.027344 187.933594 196.242188 187.789062 196.488281 187.6875 C 196.730469 187.582031 196.984375 187.53125 197.25 187.53125 L 212.183594 187.53125 C 212.449219 187.53125 212.703125 187.582031 212.949219 187.6875 C 213.191406 187.789062 213.40625 187.933594 213.59375 188.117188 C 213.78125 188.304688 213.925781 188.523438 214.027344 188.765625 C 214.125 189.011719 214.175781 189.265625 214.175781 189.527344 Z M 208.5 182.511719 L 200.953125 182.511719 C 201.921875 180.042969 202.535156 177.488281 202.789062 174.84375 L 206.648438 174.84375 C 206.902344 177.484375 207.515625 180.039062 208.480469 182.511719 Z M 245.21875 169.804688 L 172.0625 169.804688 L 172.0625 162.5625 L 248.550781 162.5625 L 248.550781 166.5 C 248.546875 166.9375 248.460938 167.363281 248.292969 167.769531 C 248.125 168.175781 247.882812 168.53125 247.570312 168.84375 C 247.257812 169.152344 246.898438 169.390625 246.492188 169.558594 C 246.082031 169.726562 245.660156 169.808594 245.21875 169.804688 Z M 245.21875 169.804688 " fill-opacity="1" fill-rule="nonzero"/></g><path fill="#ff1616" d="M 206.660156 163.40625 L 202.773438 163.40625 C 202.441406 163.40625 202.117188 163.46875 201.808594 163.597656 C 201.5 163.726562 201.226562 163.90625 200.992188 164.144531 C 200.753906 164.378906 200.570312 164.652344 200.445312 164.960938 C 200.316406 165.269531 200.25 165.59375 200.25 165.925781 C 200.25 166.261719 200.316406 166.582031 200.445312 166.890625 C 200.570312 167.199219 200.753906 167.472656 200.992188 167.707031 C 201.226562 167.945312 201.5 168.125 201.808594 168.253906 C 202.117188 168.382812 202.441406 168.445312 202.773438 168.445312 L 206.660156 168.445312 C 206.992188 168.445312 207.316406 168.382812 207.625 168.253906 C 207.933594 168.125 208.207031 167.945312 208.441406 167.707031 C 208.679688 167.472656 208.863281 167.199219 208.988281 166.890625 C 209.117188 166.582031 209.183594 166.261719 209.183594 165.925781 C 209.183594 165.59375 209.117188 165.269531 208.988281 164.960938 C 208.863281 164.652344 208.679688 164.378906 208.441406 164.144531 C 208.207031 163.90625 207.933594 163.726562 207.625 163.597656 C 207.316406 163.46875 206.992188 163.40625 206.660156 163.40625 Z M 206.660156 163.40625 " fill-opacity="1" fill-rule="nonzero"/><path fill="#ff1616" d="M 146.832031 165.226562 C 146.308594 165.226562 145.789062 165.277344 145.273438 165.378906 C 144.757812 165.484375 144.257812 165.632812 143.773438 165.835938 C 143.289062 166.035156 142.828125 166.28125 142.390625 166.574219 C 141.953125 166.863281 141.550781 167.195312 141.179688 167.566406 C 140.808594 167.9375 140.476562 168.339844 140.183594 168.777344 C 139.894531 169.210938 139.648438 169.671875 139.445312 170.15625 C 139.246094 170.640625 139.09375 171.140625 138.992188 171.65625 C 138.886719 172.171875 138.835938 172.691406 138.835938 173.214844 C 138.835938 173.738281 138.886719 174.257812 138.992188 174.773438 C 139.09375 175.285156 139.246094 175.785156 139.445312 176.269531 C 139.648438 176.753906 139.894531 177.214844 140.183594 177.652344 C 140.476562 178.085938 140.808594 178.492188 141.179688 178.863281 C 141.550781 179.234375 141.953125 179.5625 142.390625 179.855469 C 142.828125 180.148438 143.289062 180.390625 143.773438 180.59375 C 144.257812 180.792969 144.757812 180.945312 145.273438 181.046875 C 145.789062 181.148438 146.308594 181.203125 146.832031 181.203125 C 147.359375 181.203125 147.878906 181.148438 148.394531 181.046875 C 148.910156 180.945312 149.410156 180.792969 149.894531 180.59375 C 150.378906 180.390625 150.839844 180.148438 151.277344 179.855469 C 151.714844 179.5625 152.117188 179.234375 152.488281 178.863281 C 152.859375 178.492188 153.191406 178.085938 153.484375 177.652344 C 153.773438 177.214844 154.019531 176.753906 154.222656 176.269531 C 154.421875 175.785156 154.574219 175.285156 154.675781 174.773438 C 154.78125 174.257812 154.832031 173.738281 154.832031 173.214844 C 154.828125 172.691406 154.777344 172.171875 154.675781 171.65625 C 154.570312 171.144531 154.417969 170.644531 154.21875 170.160156 C 154.015625 169.675781 153.769531 169.214844 153.480469 168.78125 C 153.1875 168.34375 152.855469 167.941406 152.484375 167.570312 C 152.113281 167.199219 151.710938 166.867188 151.273438 166.578125 C 150.835938 166.285156 150.375 166.039062 149.890625 165.839844 C 149.40625 165.636719 148.90625 165.484375 148.394531 165.382812 C 147.878906 165.28125 147.359375 165.226562 146.832031 165.226562 Z M 146.832031 176.160156 C 146.441406 176.160156 146.066406 176.085938 145.703125 175.9375 C 145.34375 175.789062 145.023438 175.574219 144.746094 175.296875 C 144.46875 175.023438 144.257812 174.703125 144.105469 174.34375 C 143.957031 173.980469 143.882812 173.605469 143.882812 173.214844 C 143.882812 172.824219 143.957031 172.445312 144.105469 172.085938 C 144.257812 171.726562 144.46875 171.40625 144.746094 171.128906 C 145.023438 170.851562 145.34375 170.640625 145.703125 170.492188 C 146.066406 170.339844 146.441406 170.265625 146.832031 170.265625 C 147.226562 170.265625 147.601562 170.339844 147.964844 170.492188 C 148.324219 170.640625 148.644531 170.851562 148.921875 171.128906 C 149.199219 171.40625 149.410156 171.726562 149.5625 172.085938 C 149.710938 172.445312 149.785156 172.824219 149.785156 173.214844 C 149.785156 173.605469 149.710938 173.980469 149.558594 174.339844 C 149.410156 174.703125 149.195312 175.019531 148.917969 175.296875 C 148.640625 175.574219 148.324219 175.785156 147.960938 175.9375 C 147.601562 176.085938 147.226562 176.160156 146.832031 176.160156 Z M 146.832031 176.160156 " fill-opacity="1" fill-rule="nonzero"/><path fill="#ff1616" d="M 161.96875 105.605469 L 131.699219 105.605469 C 131.363281 105.605469 131.042969 105.667969 130.730469 105.796875 C 130.421875 105.925781 130.152344 106.109375 129.914062 106.34375 C 129.675781 106.582031 129.496094 106.851562 129.367188 107.160156 C 129.238281 107.46875 129.175781 107.792969 129.175781 108.125 L 129.175781 118.980469 C 129.175781 119.3125 129.238281 119.632812 129.367188 119.941406 C 129.496094 120.25 129.675781 120.523438 129.914062 120.761719 C 130.152344 120.996094 130.421875 121.179688 130.730469 121.308594 C 131.042969 121.433594 131.363281 121.5 131.699219 121.5 L 161.96875 121.5 C 162.304688 121.5 162.625 121.433594 162.933594 121.308594 C 163.246094 121.179688 163.515625 120.996094 163.753906 120.761719 C 163.992188 120.523438 164.171875 120.25 164.300781 119.941406 C 164.429688 119.632812 164.492188 119.3125 164.492188 118.980469 L 164.492188 108.125 C 164.492188 107.792969 164.429688 107.46875 164.300781 107.160156 C 164.171875 106.851562 163.992188 106.582031 163.753906 106.34375 C 163.515625 106.109375 163.246094 105.925781 162.933594 105.796875 C 162.625 105.667969 162.304688 105.605469 161.96875 105.605469 Z M 159.449219 116.460938 L 134.21875 116.460938 L 134.21875 110.644531 L 159.449219 110.644531 Z M 159.449219 116.460938 " fill-opacity="1" fill-rule="nonzero"/><path fill="#ff1616" d="M 161.96875 132.535156 L 131.699219 132.535156 C 131.363281 132.535156 131.042969 132.597656 130.730469 132.726562 C 130.421875 132.855469 130.152344 133.035156 129.914062 133.273438 C 129.675781 133.507812 129.496094 133.78125 129.367188 134.089844 C 129.238281 134.398438 129.175781 134.71875 129.175781 135.054688 C 129.175781 135.386719 129.238281 135.710938 129.367188 136.019531 C 129.496094 136.328125 129.675781 136.597656 129.914062 136.835938 C 130.152344 137.070312 130.421875 137.253906 130.730469 137.382812 C 131.042969 137.511719 131.363281 137.574219 131.699219 137.574219 L 161.96875 137.574219 C 162.304688 137.574219 162.625 137.511719 162.933594 137.382812 C 163.246094 137.253906 163.515625 137.070312 163.753906 136.835938 C 163.992188 136.597656 164.171875 136.328125 164.300781 136.019531 C 164.429688 135.710938 164.492188 135.386719 164.492188 135.054688 C 164.492188 134.71875 164.429688 134.398438 164.300781 134.089844 C 164.171875 133.78125 163.992188 133.507812 163.753906 133.273438 C 163.515625 133.035156 163.246094 132.855469 162.933594 132.726562 C 162.625 132.597656 162.304688 132.535156 161.96875 132.535156 Z M 161.96875 132.535156 " fill-opacity="1" fill-rule="nonzero"/><g fill="#ffffff" fill-opacity="1"><g transform="translate(38.465151, 249.59248)"><g><path d="M 4.078125 0 L 6.683594 0 C 7.847656 0 8.734375 -0.890625 8.734375 -2.054688 L 8.734375 -7.417969 C 8.734375 -8.519531 9.625 -9.410156 10.726562 -9.410156 L 20.78125 -9.410156 C 21.914062 -9.410156 22.835938 -10.296875 22.835938 -11.496094 L 22.835938 -12.875 C 22.835938 -14.070312 21.945312 -14.957031 20.78125 -14.957031 L 10.726562 -14.957031 C 9.625 -14.957031 8.734375 -15.847656 8.734375 -16.949219 C 8.734375 -18.085938 9.625 -18.972656 10.726562 -18.972656 L 22.007812 -18.972656 C 23.171875 -18.972656 24.0625 -19.863281 24.0625 -21.027344 L 24.0625 -22.46875 C 24.0625 -23.632812 23.171875 -24.519531 22.007812 -24.519531 L 4.078125 -24.519531 C 2.910156 -24.519531 2.023438 -23.632812 2.023438 -22.46875 L 2.023438 -2.054688 C 2.023438 -0.890625 2.910156 0 4.078125 0 Z M 4.078125 0 "/></g></g></g><g fill="#ffffff" fill-opacity="1"><g transform="translate(64.542746, 249.59248)"><g><path d="M 4.078125 0 L 6.683594 0 C 7.847656 0 8.734375 -0.890625 8.734375 -2.054688 L 8.734375 -7.601562 C 8.734375 -8.703125 9.625 -9.59375 10.726562 -9.59375 L 15.324219 -9.59375 C 16.460938 -9.59375 17.347656 -8.703125 17.347656 -7.601562 L 17.347656 -2.054688 C 17.347656 -0.890625 18.238281 0 19.402344 0 L 22.007812 0 C 23.171875 0 24.0625 -0.890625 24.0625 -2.054688 L 24.0625 -8.367188 C 24.0625 -9.472656 23.265625 -10.238281 22.160156 -10.238281 L 21.886719 -10.238281 C 20.78125 -10.238281 19.890625 -11.125 19.890625 -12.261719 C 19.890625 -13.394531 20.78125 -14.285156 21.886719 -14.285156 L 21.945312 -14.285156 C 23.171875 -14.285156 24.0625 -15.171875 24.0625 -16.398438 L 24.0625 -18.269531 C 24.0625 -21.886719 21.425781 -24.519531 17.808594 -24.519531 L 4.078125 -24.519531 C 2.910156 -24.519531 2.023438 -23.632812 2.023438 -22.46875 L 2.023438 -2.054688 C 2.023438 -0.890625 2.910156 0 4.078125 0 Z M 10.726562 -14.957031 C 9.625 -14.957031 8.734375 -15.847656 8.734375 -16.949219 C 8.734375 -18.085938 9.625 -18.972656 10.726562 -18.972656 L 15.324219 -18.972656 C 16.460938 -18.972656 17.347656 -18.085938 17.347656 -16.949219 C 17.347656 -15.847656 16.460938 -14.957031 15.324219 -14.957031 Z M 10.726562 -14.957031 "/></g></g></g><g fill="#ffffff" fill-opacity="1"><g transform="translate(90.620341, 249.59248)"><g><path d="M 9.53125 0 L 11.953125 0 C 16.304688 0 19.464844 -3.15625 19.464844 -7.507812 L 19.464844 -17.011719 C 19.464844 -21.363281 16.304688 -24.519531 11.953125 -24.519531 L 9.53125 -24.519531 C 5.179688 -24.519531 2.023438 -21.363281 2.023438 -17.011719 L 2.023438 -7.507812 C 2.023438 -3.15625 5.179688 0 9.53125 0 Z M 10.726562 -5.546875 C 9.625 -5.546875 8.734375 -6.4375 8.734375 -7.570312 L 8.734375 -16.949219 C 8.734375 -18.085938 9.625 -18.972656 10.726562 -18.972656 C 11.863281 -18.972656 12.75 -18.085938 12.75 -16.949219 L 12.75 -7.570312 C 12.75 -6.4375 11.863281 -5.546875 10.726562 -5.546875 Z M 10.726562 -5.546875 "/></g></g></g><g fill="#ffffff" fill-opacity="1"><g transform="translate(112.101422, 249.59248)"><g><path d="M 4.078125 0 L 6.683594 0 C 7.847656 0 8.734375 -0.890625 8.734375 -2.054688 L 8.734375 -16.980469 C 8.734375 -18.085938 9.625 -18.972656 10.726562 -18.972656 C 11.863281 -18.972656 12.75 -18.085938 12.75 -16.980469 L 12.75 -2.085938 C 12.75 -0.917969 13.640625 0 14.804688 0 L 27.21875 0 C 28.382812 0 29.273438 -0.890625 29.273438 -2.054688 L 29.273438 -22.46875 C 29.273438 -23.632812 28.382812 -24.519531 27.21875 -24.519531 L 24.613281 -24.519531 C 23.449219 -24.519531 22.558594 -23.632812 22.558594 -22.46875 L 22.558594 -7.570312 C 22.558594 -6.4375 21.671875 -5.546875 20.535156 -5.546875 C 19.433594 -5.546875 18.542969 -6.4375 18.542969 -7.570312 L 18.542969 -22.4375 C 18.542969 -23.570312 17.65625 -24.519531 16.492188 -24.519531 L 4.078125 -24.519531 C 2.910156 -24.519531 2.023438 -23.632812 2.023438 -22.46875 L 2.023438 -2.054688 C 2.023438 -0.890625 2.910156 0 4.078125 0 Z M 4.078125 0 "/></g></g></g><g fill="#ffffff" fill-opacity="1"><g transform="translate(143.388417, 249.59248)"><g><path d="M 10.789062 0 L 13.488281 0 C 14.804688 0 15.507812 -0.675781 15.507812 -1.992188 L 15.507812 -16.980469 C 15.507812 -18.085938 16.429688 -18.972656 17.53125 -18.972656 L 20.261719 -18.972656 C 21.578125 -18.972656 22.285156 -19.679688 22.285156 -20.996094 L 22.285156 -22.496094 C 22.285156 -23.816406 21.578125 -24.519531 20.261719 -24.519531 L 4.046875 -24.550781 C 2.699219 -24.550781 2.023438 -23.847656 2.023438 -22.527344 L 2.023438 -20.996094 C 2.023438 -19.679688 2.726562 -18.972656 4.046875 -18.972656 L 6.742188 -18.972656 C 7.878906 -18.972656 8.796875 -18.085938 8.796875 -16.980469 L 8.796875 -2.023438 C 8.796875 -0.703125 9.472656 0 10.789062 0 Z M 10.789062 0 "/></g></g></g><g fill="#ffffff" fill-opacity="1"><g transform="translate(167.688697, 249.59248)"><g/></g></g><g fill="#ffffff" fill-opacity="1"><g transform="translate(179.394507, 249.59248)"><g><path d="M 4.078125 0 L 22.039062 0 C 23.203125 0 24.089844 -0.890625 24.089844 -2.054688 L 24.089844 -3.496094 C 24.089844 -4.660156 23.203125 -5.546875 22.039062 -5.546875 L 10.726562 -5.546875 C 9.625 -5.546875 8.734375 -6.4375 8.734375 -7.570312 C 8.734375 -8.675781 9.625 -9.59375 10.726562 -9.59375 L 20.8125 -9.59375 C 21.945312 -9.59375 22.867188 -10.484375 22.867188 -11.679688 L 22.867188 -12.902344 C 22.867188 -14.070312 21.976562 -14.957031 20.8125 -14.957031 L 10.726562 -14.957031 C 9.625 -14.957031 8.734375 -15.847656 8.734375 -16.949219 C 8.734375 -18.085938 9.625 -18.972656 10.726562 -18.972656 L 22.039062 -18.972656 C 23.203125 -18.972656 24.089844 -19.863281 24.089844 -21.027344 L 24.089844 -22.46875 C 24.089844 -23.632812 23.203125 -24.519531 22.039062 -24.519531 L 4.078125 -24.519531 C 2.910156 -24.519531 2.023438 -23.632812 2.023438 -22.46875 L 2.023438 -2.054688 C 2.023438 -0.890625 2.910156 0 4.078125 0 Z M 4.078125 0 "/></g></g></g><g fill="#ffffff" fill-opacity="1"><g transform="translate(205.502756, 249.59248)"><g><path d="M 4.078125 0 L 6.683594 0 C 7.847656 0 8.734375 -0.890625 8.734375 -2.054688 L 8.734375 -16.980469 C 8.734375 -18.085938 9.625 -18.972656 10.726562 -18.972656 C 11.863281 -18.972656 12.75 -18.085938 12.75 -16.980469 L 12.75 -2.085938 C 12.75 -0.917969 13.640625 0 14.804688 0 L 27.21875 0 C 28.382812 0 29.273438 -0.890625 29.273438 -2.054688 L 29.273438 -22.46875 C 29.273438 -23.632812 28.382812 -24.519531 27.21875 -24.519531 L 24.613281 -24.519531 C 23.449219 -24.519531 22.558594 -23.632812 22.558594 -22.46875 L 22.558594 -7.570312 C 22.558594 -6.4375 21.671875 -5.546875 20.535156 -5.546875 C 19.433594 -5.546875 18.542969 -6.4375 18.542969 -7.570312 L 18.542969 -22.4375 C 18.542969 -23.570312 17.65625 -24.519531 16.492188 -24.519531 L 4.078125 -24.519531 C 2.910156 -24.519531 2.023438 -23.632812 2.023438 -22.46875 L 2.023438 -2.054688 C 2.023438 -0.890625 2.910156 0 4.078125 0 Z M 4.078125 0 "/></g></g></g><g fill="#ffffff" fill-opacity="1"><g transform="translate(236.78975, 249.59248)"><g><path d="M 4.078125 0 L 11.953125 0 C 16.304688 0 19.464844 -3.15625 19.464844 -7.507812 L 19.464844 -17.011719 C 19.464844 -21.363281 16.304688 -24.519531 11.953125 -24.519531 L 4.078125 -24.519531 C 2.910156 -24.519531 2.023438 -23.632812 2.023438 -22.46875 L 2.023438 -2.054688 C 2.023438 -0.890625 2.910156 0 4.078125 0 Z M 10.726562 -5.546875 C 9.625 -5.546875 8.734375 -6.4375 8.734375 -7.570312 L 8.734375 -16.949219 C 8.734375 -18.085938 9.625 -18.972656 10.726562 -18.972656 C 11.863281 -18.972656 12.75 -18.085938 12.75 -16.949219 L 12.75 -7.570312 C 12.75 -6.4375 11.863281 -5.546875 10.726562 -5.546875 Z M 10.726562 -5.546875 "/></g></g></g><g fill="#ffffff" fill-opacity="1"><g transform="translate(258.270832, 249.59248)"><g><path d="M 4.078125 0 L 22.039062 0 C 23.203125 0 24.089844 -0.890625 24.089844 -2.054688 L 24.089844 -3.496094 C 24.089844 -4.660156 23.203125 -5.546875 22.039062 -5.546875 L 10.726562 -5.546875 C 9.625 -5.546875 8.734375 -6.4375 8.734375 -7.570312 C 8.734375 -8.675781 9.625 -9.59375 10.726562 -9.59375 L 20.8125 -9.59375 C 21.945312 -9.59375 22.867188 -10.484375 22.867188 -11.679688 L 22.867188 -12.902344 C 22.867188 -14.070312 21.976562 -14.957031 20.8125 -14.957031 L 10.726562 -14.957031 C 9.625 -14.957031 8.734375 -15.847656 8.734375 -16.949219 C 8.734375 -18.085938 9.625 -18.972656 10.726562 -18.972656 L 22.039062 -18.972656 C 23.203125 -18.972656 24.089844 -19.863281 24.089844 -21.027344 L 24.089844 -22.46875 C 24.089844 -23.632812 23.203125 -24.519531 22.039062 -24.519531 L 4.078125 -24.519531 C 2.910156 -24.519531 2.023438 -23.632812 2.023438 -22.46875 L 2.023438 -2.054688 C 2.023438 -0.890625 2.910156 0 4.078125 0 Z M 4.078125 0 "/></g></g></g><g fill="#ffffff" fill-opacity="1"><g transform="translate(284.379091, 249.59248)"><g><path d="M 4.078125 0 L 6.683594 0 C 7.847656 0 8.734375 -0.890625 8.734375 -2.054688 L 8.734375 -7.601562 C 8.734375 -8.703125 9.625 -9.59375 10.726562 -9.59375 L 15.324219 -9.59375 C 16.460938 -9.59375 17.347656 -8.703125 17.347656 -7.601562 L 17.347656 -2.054688 C 17.347656 -0.890625 18.238281 0 19.402344 0 L 22.007812 0 C 23.171875 0 24.0625 -0.890625 24.0625 -2.054688 L 24.0625 -8.367188 C 24.0625 -9.472656 23.265625 -10.238281 22.160156 -10.238281 L 21.886719 -10.238281 C 20.78125 -10.238281 19.890625 -11.125 19.890625 -12.261719 C 19.890625 -13.394531 20.78125 -14.285156 21.886719 -14.285156 L 21.945312 -14.285156 C 23.171875 -14.285156 24.0625 -15.171875 24.0625 -16.398438 L 24.0625 -18.269531 C 24.0625 -21.886719 21.425781 -24.519531 17.808594 -24.519531 L 4.078125 -24.519531 C 2.910156 -24.519531 2.023438 -23.632812 2.023438 -22.46875 L 2.023438 -2.054688 C 2.023438 -0.890625 2.910156 0 4.078125 0 Z M 10.726562 -14.957031 C 9.625 -14.957031 8.734375 -15.847656 8.734375 -16.949219 C 8.734375 -18.085938 9.625 -18.972656 10.726562 -18.972656 L 15.324219 -18.972656 C 16.460938 -18.972656 17.347656 -18.085938 17.347656 -16.949219 C 17.347656 -15.847656 16.460938 -14.957031 15.324219 -14.957031 Z M 10.726562 -14.957031 "/></g></g></g><g fill="#ffffff" fill-opacity="1"><g transform="translate(310.456697, 249.59248)"><g><path d="M 4.078125 0 L 16.859375 0 C 21.027344 0 24.0625 -3.035156 24.0625 -7.203125 L 24.0625 -7.753906 C 24.0625 -11.921875 21.027344 -14.957031 16.859375 -14.957031 L 10.726562 -14.957031 C 9.625 -14.957031 8.734375 -15.847656 8.734375 -16.949219 C 8.734375 -18.085938 9.625 -18.972656 10.726562 -18.972656 L 22.007812 -18.972656 C 23.171875 -18.972656 24.0625 -19.863281 24.0625 -21.027344 L 24.0625 -22.46875 C 24.0625 -23.632812 23.171875 -24.519531 22.007812 -24.519531 L 9.226562 -24.519531 C 5.058594 -24.519531 2.023438 -21.488281 2.023438 -17.316406 L 2.023438 -16.796875 C 2.023438 -12.628906 5.058594 -9.59375 9.226562 -9.59375 L 15.324219 -9.59375 C 16.460938 -9.59375 17.347656 -8.675781 17.347656 -7.570312 C 17.347656 -6.4375 16.460938 -5.546875 15.324219 -5.546875 L 4.078125 -5.546875 C 2.910156 -5.546875 2.023438 -4.660156 2.023438 -3.496094 L 2.023438 -2.054688 C 2.023438 -0.890625 2.910156 0 4.078125 0 Z M 4.078125 0 "/></g></g></g><g fill="#ffffff" fill-opacity="1"><g transform="translate(140.14715, 272.077915)"><g><path d="M 4.625 0.296875 C 6.292969 0.296875 7.601562 -0.707031 8.058594 -1.9375 L 8.335938 0 L 9.613281 0 L 9.613281 -13.789062 L 7.90625 -13.789062 L 7.90625 -8.03125 C 7.503906 -9.109375 6.285156 -10.03125 4.644531 -10.03125 C 2.136719 -10.03125 0.589844 -8.164062 0.589844 -4.875 C 0.589844 -1.746094 2.117188 0.296875 4.625 0.296875 Z M 5.113281 -1 C 3.414062 -1 2.335938 -2.375 2.335938 -4.875 C 2.335938 -7.496094 3.421875 -8.734375 5.101562 -8.734375 C 6.648438 -8.734375 7.914062 -7.582031 7.914062 -4.863281 C 7.914062 -2.414062 6.820312 -1 5.113281 -1 Z M 5.113281 -1 "/></g></g></g><g fill="#ffffff" fill-opacity="1"><g transform="translate(151.256781, 272.077915)"><g><path d="M 5.160156 0.296875 C 7.246094 0.296875 8.46875 -0.847656 9.089844 -2.613281 L 7.867188 -3.050781 L 7.8125 -3.042969 C 7.390625 -1.59375 6.503906 -0.953125 5.199219 -0.953125 C 3.355469 -0.953125 2.269531 -2.347656 2.230469 -4.347656 L 9.269531 -4.347656 L 9.261719 -5.3125 C 9.261719 -8.144531 7.742188 -10.03125 5.054688 -10.03125 C 2.058594 -10.03125 0.601562 -7.964844 0.601562 -4.929688 C 0.601562 -1.917969 2.097656 0.296875 5.160156 0.296875 Z M 2.242188 -5.597656 C 2.308594 -7.457031 3.375 -8.839844 5.015625 -8.839844 C 6.722656 -8.839844 7.628906 -7.640625 7.648438 -5.597656 Z M 2.242188 -5.597656 "/></g></g></g><g fill="#ffffff" fill-opacity="1"><g transform="translate(161.088567, 272.077915)"><g><path d="M 3.613281 0 L 5.570312 0 L 9.203125 -9.738281 L 7.523438 -9.738281 L 5.0625 -2.699219 L 4.664062 -1.363281 L 4.261719 -2.699219 L 1.820312 -9.738281 L -0.0195312 -9.738281 Z M 3.613281 0 "/></g></g></g><g fill="#ffffff" fill-opacity="1"><g transform="translate(170.271893, 272.077915)"><g><path d="M 5.160156 0.296875 C 7.246094 0.296875 8.46875 -0.847656 9.089844 -2.613281 L 7.867188 -3.050781 L 7.8125 -3.042969 C 7.390625 -1.59375 6.503906 -0.953125 5.199219 -0.953125 C 3.355469 -0.953125 2.269531 -2.347656 2.230469 -4.347656 L 9.269531 -4.347656 L 9.261719 -5.3125 C 9.261719 -8.144531 7.742188 -10.03125 5.054688 -10.03125 C 2.058594 -10.03125 0.601562 -7.964844 0.601562 -4.929688 C 0.601562 -1.917969 2.097656 0.296875 5.160156 0.296875 Z M 2.242188 -5.597656 C 2.308594 -7.457031 3.375 -8.839844 5.015625 -8.839844 C 6.722656 -8.839844 7.628906 -7.640625 7.648438 -5.597656 Z M 2.242188 -5.597656 "/></g></g></g><g fill="#ffffff" fill-opacity="1"><g transform="translate(180.103679, 272.077915)"><g><path d="M 1.476562 0 L 3.175781 0 L 3.175781 -13.789062 L 1.476562 -13.789062 Z M 1.476562 0 "/></g></g></g><g fill="#ffffff" fill-opacity="1"><g transform="translate(184.766866, 272.077915)"><g><path d="M 5.167969 0.296875 C 8.144531 0.296875 9.746094 -1.898438 9.746094 -4.882812 C 9.746094 -7.847656 8.136719 -10.03125 5.167969 -10.03125 C 2.210938 -10.03125 0.589844 -7.847656 0.589844 -4.875 C 0.589844 -1.886719 2.195312 0.296875 5.167969 0.296875 Z M 5.167969 -1 C 3.40625 -1 2.335938 -2.363281 2.335938 -4.875 C 2.335938 -7.382812 3.394531 -8.734375 5.167969 -8.734375 C 6.941406 -8.734375 7.992188 -7.371094 7.992188 -4.875 C 7.992188 -2.355469 6.921875 -1 5.167969 -1 Z M 5.167969 -1 "/></g></g></g><g fill="#ffffff" fill-opacity="1"><g transform="translate(195.104064, 272.077915)"><g><path d="M 1.449219 3.472656 L 3.148438 3.472656 L 3.148438 -1.714844 C 3.546875 -0.621094 4.769531 0.296875 6.410156 0.296875 C 8.917969 0.296875 10.460938 -1.5625 10.460938 -4.875 C 10.460938 -7.980469 8.945312 -10.023438 6.429688 -10.023438 C 4.757812 -10.023438 3.433594 -9.078125 2.929688 -7.726562 L 2.660156 -9.738281 L 1.449219 -9.738281 Z M 5.949219 -0.992188 C 4.40625 -0.992188 3.136719 -2.144531 3.136719 -4.882812 C 3.136719 -7.316406 4.226562 -8.726562 5.941406 -8.726562 C 7.648438 -8.726562 8.707031 -7.363281 8.707031 -4.863281 C 8.707031 -2.230469 7.628906 -0.992188 5.949219 -0.992188 Z M 5.949219 -0.992188 "/></g></g></g><g fill="#ffffff" fill-opacity="1"><g transform="translate(206.213695, 272.077915)"><g><path d="M 5.160156 0.296875 C 7.246094 0.296875 8.46875 -0.847656 9.089844 -2.613281 L 7.867188 -3.050781 L 7.8125 -3.042969 C 7.390625 -1.59375 6.503906 -0.953125 5.199219 -0.953125 C 3.355469 -0.953125 2.269531 -2.347656 2.230469 -4.347656 L 9.269531 -4.347656 L 9.261719 -5.3125 C 9.261719 -8.144531 7.742188 -10.03125 5.054688 -10.03125 C 2.058594 -10.03125 0.601562 -7.964844 0.601562 -4.929688 C 0.601562 -1.917969 2.097656 0.296875 5.160156 0.296875 Z M 2.242188 -5.597656 C 2.308594 -7.457031 3.375 -8.839844 5.015625 -8.839844 C 6.722656 -8.839844 7.628906 -7.640625 7.648438 -5.597656 Z M 2.242188 -5.597656 "/></g></g></g><g fill="#ffffff" fill-opacity="1"><g transform="translate(216.04548, 272.077915)"><g><path d="M 1.449219 0 L 3.136719 0 L 3.136719 -4.921875 C 3.136719 -6.484375 3.824219 -8.6875 5.65625 -8.6875 C 7.542969 -8.6875 7.601562 -7.019531 7.496094 -5.40625 L 8.878906 -5.558594 C 9.144531 -7.476562 8.871094 -10.023438 5.980469 -10.023438 C 4.511719 -10.023438 3.300781 -8.800781 3.011719 -7.457031 L 2.679688 -9.738281 L 1.449219 -9.738281 Z M 1.449219 0 "/></g></g></g><g fill="#ffffff" fill-opacity="1"><g transform="translate(225.276483, 272.077915)"><g><path d="M 4.691406 0.296875 C 7.324219 0.296875 8.726562 -0.894531 8.726562 -2.652344 C 8.726562 -4.109375 7.640625 -4.96875 5.113281 -5.609375 C 3.578125 -6 2.660156 -6.285156 2.660156 -7.324219 C 2.660156 -8.289062 3.386719 -8.820312 4.664062 -8.820312 C 6.113281 -8.820312 6.808594 -8.203125 7.113281 -6.820312 L 8.488281 -7.144531 C 7.992188 -9.011719 6.808594 -10.03125 4.691406 -10.03125 C 2.441406 -10.03125 1.011719 -9.03125 1.011719 -7.324219 C 1.011719 -5.265625 3.070312 -4.824219 4.414062 -4.480469 C 6.390625 -3.96875 7.066406 -3.433594 7.066406 -2.59375 C 7.066406 -1.574219 6.285156 -0.933594 4.71875 -0.933594 C 3.195312 -0.933594 2.296875 -1.601562 2.011719 -3.183594 L 0.667969 -2.851562 C 0.972656 -0.648438 2.554688 0.296875 4.691406 0.296875 Z M 4.691406 0.296875 "/></g></g></g></svg>