<svg xmlns="http://www.w3.org/2000/svg" xmlns:xlink="http://www.w3.org/1999/xlink" width="500" zoomAndPan="magnify" viewBox="0 0 375 374.999991" height="500" preserveAspectRatio="xMidYMid meet" version="1.0"><defs><g/><clipPath id="bd6925f006"><path d="M 28.226562 137.011719 L 160.226562 137.011719 L 160.226562 236 L 28.226562 236 Z M 28.226562 137.011719 " clip-rule="nonzero"/></clipPath></defs><g clip-path="url(#bd6925f006)"><path fill="#ff1616" d="M 151.839844 151.703125 L 78.679688 151.703125 L 78.679688 139.613281 C 78.679688 139.28125 78.617188 138.957031 78.488281 138.648438 C 78.359375 138.339844 78.179688 138.070312 77.941406 137.832031 C 77.707031 137.597656 77.433594 137.414062 77.125 137.285156 C 76.816406 137.160156 76.492188 137.09375 76.160156 137.09375 L 30.75 137.09375 C 30.414062 137.09375 30.09375 137.160156 29.785156 137.285156 C 29.476562 137.414062 29.203125 137.597656 28.964844 137.832031 C 28.730469 138.070312 28.546875 138.339844 28.417969 138.648438 C 28.292969 138.957031 28.226562 139.28125 28.226562 139.613281 L 28.226562 233.382812 C 28.226562 233.714844 28.292969 234.039062 28.417969 234.347656 C 28.546875 234.65625 28.730469 234.925781 28.964844 235.164062 C 29.203125 235.398438 29.476562 235.582031 29.785156 235.710938 C 30.09375 235.839844 30.414062 235.902344 30.75 235.902344 L 76.160156 235.902344 C 76.492188 235.902344 76.816406 235.839844 77.125 235.710938 C 77.433594 235.582031 77.707031 235.398438 77.941406 235.164062 C 78.179688 234.925781 78.359375 234.65625 78.488281 234.347656 C 78.617188 234.039062 78.679688 233.714844 78.679688 233.382812 L 78.679688 215.636719 L 104.351562 215.636719 C 103.972656 218.398438 103.195312 221.039062 102.015625 223.5625 C 101.273438 223.765625 100.582031 224.082031 99.945312 224.511719 C 99.308594 224.941406 98.753906 225.460938 98.285156 226.070312 C 97.816406 226.679688 97.460938 227.347656 97.210938 228.078125 C 96.960938 228.804688 96.835938 229.550781 96.832031 230.320312 L 96.832031 233.363281 C 96.832031 233.699219 96.894531 234.019531 97.023438 234.328125 C 97.152344 234.636719 97.335938 234.910156 97.570312 235.144531 C 97.808594 235.382812 98.082031 235.5625 98.390625 235.691406 C 98.699219 235.820312 99.019531 235.882812 99.355469 235.882812 L 123.320312 235.882812 C 123.65625 235.882812 123.976562 235.820312 124.285156 235.691406 C 124.59375 235.5625 124.867188 235.382812 125.105469 235.144531 C 125.339844 234.910156 125.523438 234.636719 125.652344 234.328125 C 125.777344 234.019531 125.84375 233.699219 125.84375 233.363281 L 125.84375 230.320312 C 125.84375 229.550781 125.71875 228.800781 125.46875 228.074219 C 125.222656 227.34375 124.867188 226.671875 124.398438 226.058594 C 123.929688 225.449219 123.378906 224.925781 122.738281 224.496094 C 122.097656 224.066406 121.410156 223.746094 120.664062 223.542969 C 119.484375 221.019531 118.707031 218.378906 118.332031 215.617188 L 151.839844 215.617188 C 152.386719 215.617188 152.929688 215.566406 153.46875 215.457031 C 154.007812 215.351562 154.53125 215.191406 155.035156 214.980469 C 155.542969 214.773438 156.023438 214.515625 156.480469 214.210938 C 156.9375 213.90625 157.359375 213.558594 157.746094 213.171875 C 158.132812 212.785156 158.480469 212.363281 158.785156 211.90625 C 159.089844 211.453125 159.347656 210.972656 159.558594 210.464844 C 159.769531 209.960938 159.925781 209.4375 160.035156 208.898438 C 160.140625 208.363281 160.195312 207.820312 160.195312 207.273438 L 160.195312 160.03125 C 160.195312 159.480469 160.140625 158.941406 160.03125 158.402344 C 159.921875 157.867188 159.761719 157.347656 159.550781 156.84375 C 159.34375 156.335938 159.085938 155.859375 158.777344 155.402344 C 158.472656 154.949219 158.128906 154.527344 157.738281 154.140625 C 157.351562 153.753906 156.929688 153.410156 156.476562 153.105469 C 156.019531 152.804688 155.539062 152.546875 155.03125 152.335938 C 154.527344 152.128906 154.003906 151.96875 153.46875 151.863281 C 152.929688 151.757812 152.386719 151.703125 151.839844 151.703125 Z M 151.839844 156.742188 C 152.277344 156.742188 152.699219 156.828125 153.105469 156.996094 C 153.511719 157.164062 153.867188 157.402344 154.179688 157.710938 C 154.488281 158.023438 154.726562 158.378906 154.898438 158.785156 C 155.066406 159.1875 155.148438 159.609375 155.152344 160.046875 L 155.152344 198.316406 L 78.679688 198.316406 L 78.679688 156.742188 Z M 73.636719 230.863281 L 33.273438 230.863281 L 33.273438 142.132812 L 73.636719 142.132812 Z M 120.796875 230.863281 L 101.878906 230.863281 L 101.878906 230.320312 C 101.878906 230.054688 101.929688 229.800781 102.027344 229.558594 C 102.128906 229.3125 102.273438 229.097656 102.460938 228.910156 C 102.648438 228.722656 102.863281 228.578125 103.105469 228.476562 C 103.351562 228.375 103.605469 228.324219 103.871094 228.324219 L 118.804688 228.324219 C 119.070312 228.324219 119.324219 228.375 119.566406 228.476562 C 119.8125 228.578125 120.027344 228.722656 120.214844 228.910156 C 120.402344 229.097656 120.546875 229.3125 120.644531 229.558594 C 120.746094 229.800781 120.796875 230.054688 120.796875 230.320312 Z M 115.121094 223.304688 L 107.574219 223.304688 C 108.542969 220.835938 109.15625 218.277344 109.40625 215.636719 L 113.265625 215.636719 C 113.523438 218.277344 114.136719 220.832031 115.101562 223.304688 Z M 151.839844 210.597656 L 78.679688 210.597656 L 78.679688 203.355469 L 155.167969 203.355469 L 155.167969 207.292969 C 155.167969 207.730469 155.082031 208.15625 154.914062 208.558594 C 154.746094 208.964844 154.503906 209.324219 154.191406 209.632812 C 153.878906 209.945312 153.519531 210.183594 153.113281 210.351562 C 152.703125 210.515625 152.28125 210.601562 151.839844 210.597656 Z M 151.839844 210.597656 " fill-opacity="1" fill-rule="nonzero"/></g><path fill="#ff1616" d="M 113.28125 204.199219 L 109.394531 204.199219 C 109.0625 204.199219 108.738281 204.261719 108.429688 204.390625 C 108.121094 204.519531 107.847656 204.699219 107.613281 204.9375 C 107.375 205.171875 107.191406 205.445312 107.066406 205.753906 C 106.9375 206.0625 106.871094 206.382812 106.871094 206.71875 C 106.871094 207.050781 106.9375 207.375 107.066406 207.683594 C 107.191406 207.992188 107.375 208.261719 107.613281 208.5 C 107.847656 208.734375 108.121094 208.917969 108.429688 209.046875 C 108.738281 209.175781 109.0625 209.238281 109.394531 209.238281 L 113.28125 209.238281 C 113.613281 209.238281 113.9375 209.175781 114.246094 209.046875 C 114.554688 208.917969 114.828125 208.734375 115.0625 208.5 C 115.300781 208.261719 115.484375 207.992188 115.609375 207.683594 C 115.738281 207.375 115.804688 207.050781 115.804688 206.71875 C 115.804688 206.382812 115.738281 206.0625 115.609375 205.753906 C 115.484375 205.445312 115.300781 205.171875 115.0625 204.9375 C 114.828125 204.699219 114.554688 204.519531 114.246094 204.390625 C 113.9375 204.261719 113.613281 204.199219 113.28125 204.199219 Z M 113.28125 204.199219 " fill-opacity="1" fill-rule="nonzero"/><path fill="#ff1616" d="M 53.453125 206.019531 C 52.929688 206.019531 52.410156 206.070312 51.894531 206.171875 C 51.378906 206.273438 50.878906 206.425781 50.394531 206.628906 C 49.910156 206.828125 49.449219 207.074219 49.011719 207.363281 C 48.574219 207.65625 48.171875 207.988281 47.800781 208.359375 C 47.429688 208.730469 47.097656 209.132812 46.804688 209.570312 C 46.511719 210.003906 46.265625 210.464844 46.066406 210.949219 C 45.867188 211.433594 45.714844 211.933594 45.609375 212.449219 C 45.507812 212.960938 45.457031 213.480469 45.457031 214.007812 C 45.457031 214.53125 45.507812 215.050781 45.609375 215.566406 C 45.714844 216.078125 45.867188 216.578125 46.066406 217.0625 C 46.265625 217.546875 46.511719 218.007812 46.804688 218.445312 C 47.097656 218.878906 47.429688 219.285156 47.800781 219.652344 C 48.171875 220.023438 48.574219 220.355469 49.011719 220.648438 C 49.449219 220.9375 49.910156 221.183594 50.394531 221.386719 C 50.878906 221.585938 51.378906 221.738281 51.894531 221.839844 C 52.410156 221.941406 52.929688 221.992188 53.453125 221.992188 C 53.980469 221.992188 54.5 221.941406 55.015625 221.839844 C 55.53125 221.738281 56.03125 221.585938 56.515625 221.386719 C 57 221.183594 57.460938 220.9375 57.898438 220.648438 C 58.332031 220.355469 58.738281 220.023438 59.109375 219.652344 C 59.480469 219.285156 59.8125 218.878906 60.105469 218.445312 C 60.394531 218.007812 60.640625 217.546875 60.84375 217.0625 C 61.042969 216.578125 61.195312 216.078125 61.296875 215.566406 C 61.398438 215.050781 61.453125 214.53125 61.453125 214.007812 C 61.449219 213.480469 61.398438 212.964844 61.296875 212.449219 C 61.191406 211.933594 61.039062 211.4375 60.839844 210.953125 C 60.636719 210.46875 60.390625 210.007812 60.101562 209.570312 C 59.808594 209.136719 59.476562 208.734375 59.105469 208.363281 C 58.734375 207.992188 58.332031 207.660156 57.894531 207.367188 C 57.457031 207.078125 56.996094 206.832031 56.511719 206.628906 C 56.027344 206.429688 55.527344 206.277344 55.011719 206.175781 C 54.5 206.070312 53.980469 206.019531 53.453125 206.019531 Z M 53.453125 216.953125 C 53.0625 216.953125 52.6875 216.878906 52.324219 216.730469 C 51.964844 216.582031 51.644531 216.367188 51.367188 216.089844 C 51.089844 215.8125 50.878906 215.496094 50.726562 215.132812 C 50.578125 214.773438 50.503906 214.398438 50.503906 214.007812 C 50.503906 213.617188 50.578125 213.238281 50.726562 212.878906 C 50.878906 212.515625 51.089844 212.199219 51.367188 211.921875 C 51.644531 211.644531 51.964844 211.433594 52.324219 211.28125 C 52.6875 211.132812 53.0625 211.058594 53.453125 211.058594 C 53.847656 211.058594 54.222656 211.132812 54.582031 211.28125 C 54.945312 211.433594 55.265625 211.644531 55.542969 211.921875 C 55.816406 212.199219 56.03125 212.515625 56.179688 212.878906 C 56.332031 213.238281 56.40625 213.617188 56.40625 214.007812 C 56.40625 214.398438 56.328125 214.773438 56.179688 215.132812 C 56.03125 215.496094 55.816406 215.8125 55.539062 216.089844 C 55.261719 216.363281 54.945312 216.578125 54.582031 216.726562 C 54.222656 216.878906 53.84375 216.953125 53.453125 216.953125 Z M 53.453125 216.953125 " fill-opacity="1" fill-rule="nonzero"/><path fill="#ff1616" d="M 68.589844 146.398438 L 38.316406 146.398438 C 37.984375 146.398438 37.660156 146.460938 37.351562 146.589844 C 37.042969 146.71875 36.769531 146.898438 36.535156 147.136719 C 36.296875 147.371094 36.117188 147.644531 35.988281 147.953125 C 35.859375 148.261719 35.796875 148.582031 35.796875 148.917969 L 35.796875 159.769531 C 35.796875 160.105469 35.859375 160.425781 35.988281 160.734375 C 36.117188 161.042969 36.296875 161.316406 36.535156 161.554688 C 36.769531 161.789062 37.042969 161.972656 37.351562 162.097656 C 37.660156 162.226562 37.984375 162.289062 38.316406 162.289062 L 68.589844 162.289062 C 68.925781 162.289062 69.246094 162.226562 69.554688 162.097656 C 69.863281 161.972656 70.136719 161.789062 70.375 161.554688 C 70.609375 161.316406 70.792969 161.042969 70.921875 160.734375 C 71.050781 160.425781 71.113281 160.105469 71.113281 159.769531 L 71.113281 148.917969 C 71.113281 148.582031 71.050781 148.261719 70.921875 147.953125 C 70.792969 147.644531 70.609375 147.371094 70.375 147.136719 C 70.136719 146.898438 69.863281 146.71875 69.554688 146.589844 C 69.246094 146.460938 68.925781 146.398438 68.589844 146.398438 Z M 66.066406 157.25 L 40.839844 157.25 L 40.839844 151.4375 L 66.066406 151.4375 Z M 66.066406 157.25 " fill-opacity="1" fill-rule="nonzero"/><path fill="#ff1616" d="M 68.589844 173.328125 L 38.316406 173.328125 C 37.984375 173.328125 37.660156 173.390625 37.351562 173.519531 C 37.042969 173.644531 36.769531 173.828125 36.535156 174.066406 C 36.296875 174.300781 36.117188 174.574219 35.988281 174.882812 C 35.859375 175.191406 35.796875 175.511719 35.796875 175.847656 C 35.796875 176.179688 35.859375 176.503906 35.988281 176.8125 C 36.117188 177.121094 36.296875 177.390625 36.535156 177.628906 C 36.769531 177.863281 37.042969 178.046875 37.351562 178.175781 C 37.660156 178.300781 37.984375 178.367188 38.316406 178.367188 L 68.589844 178.367188 C 68.925781 178.367188 69.246094 178.300781 69.554688 178.175781 C 69.863281 178.046875 70.136719 177.863281 70.375 177.628906 C 70.609375 177.390625 70.792969 177.121094 70.921875 176.8125 C 71.050781 176.503906 71.113281 176.179688 71.113281 175.847656 C 71.113281 175.511719 71.050781 175.191406 70.921875 174.882812 C 70.792969 174.574219 70.609375 174.300781 70.375 174.066406 C 70.136719 173.828125 69.863281 173.644531 69.554688 173.519531 C 69.246094 173.390625 68.925781 173.328125 68.589844 173.328125 Z M 68.589844 173.328125 " fill-opacity="1" fill-rule="nonzero"/><g fill="#ffffff" fill-opacity="1"><g transform="translate(184.920598, 168.13252)"><g><path d="M 4.183594 0 L 6.859375 0 C 8.054688 0 8.964844 -0.914062 8.964844 -2.109375 L 8.964844 -7.613281 C 8.964844 -8.746094 9.878906 -9.65625 11.011719 -9.65625 L 21.328125 -9.65625 C 22.492188 -9.65625 23.433594 -10.570312 23.433594 -11.796875 L 23.433594 -13.210938 C 23.433594 -14.4375 22.523438 -15.351562 21.328125 -15.351562 L 11.011719 -15.351562 C 9.878906 -15.351562 8.964844 -16.261719 8.964844 -17.394531 C 8.964844 -18.558594 9.878906 -19.472656 11.011719 -19.472656 L 22.585938 -19.472656 C 23.78125 -19.472656 24.691406 -20.382812 24.691406 -21.578125 L 24.691406 -23.058594 C 24.691406 -24.253906 23.78125 -25.164062 22.585938 -25.164062 L 4.183594 -25.164062 C 2.988281 -25.164062 2.074219 -24.253906 2.074219 -23.058594 L 2.074219 -2.109375 C 2.074219 -0.914062 2.988281 0 4.183594 0 Z M 4.183594 0 "/></g></g></g><g fill="#ffffff" fill-opacity="1"><g transform="translate(211.683428, 168.13252)"><g><path d="M 4.183594 0 L 6.859375 0 C 8.054688 0 8.964844 -0.914062 8.964844 -2.109375 L 8.964844 -7.800781 C 8.964844 -8.933594 9.878906 -9.847656 11.011719 -9.847656 L 15.726562 -9.847656 C 16.890625 -9.847656 17.804688 -8.933594 17.804688 -7.800781 L 17.804688 -2.109375 C 17.804688 -0.914062 18.714844 0 19.910156 0 L 22.585938 0 C 23.78125 0 24.691406 -0.914062 24.691406 -2.109375 L 24.691406 -8.585938 C 24.691406 -9.71875 23.875 -10.507812 22.742188 -10.507812 L 22.460938 -10.507812 C 21.328125 -10.507812 20.414062 -11.417969 20.414062 -12.582031 C 20.414062 -13.746094 21.328125 -14.660156 22.460938 -14.660156 L 22.523438 -14.660156 C 23.78125 -14.660156 24.691406 -15.570312 24.691406 -16.828125 L 24.691406 -18.75 C 24.691406 -22.460938 21.988281 -25.164062 18.277344 -25.164062 L 4.183594 -25.164062 C 2.988281 -25.164062 2.074219 -24.253906 2.074219 -23.058594 L 2.074219 -2.109375 C 2.074219 -0.914062 2.988281 0 4.183594 0 Z M 11.011719 -15.351562 C 9.878906 -15.351562 8.964844 -16.261719 8.964844 -17.394531 C 8.964844 -18.558594 9.878906 -19.472656 11.011719 -19.472656 L 15.726562 -19.472656 C 16.890625 -19.472656 17.804688 -18.558594 17.804688 -17.394531 C 17.804688 -16.261719 16.890625 -15.351562 15.726562 -15.351562 Z M 11.011719 -15.351562 "/></g></g></g><g fill="#ffffff" fill-opacity="1"><g transform="translate(238.446258, 168.13252)"><g><path d="M 9.78125 0 L 12.269531 0 C 16.734375 0 19.976562 -3.238281 19.976562 -7.707031 L 19.976562 -17.457031 C 19.976562 -21.925781 16.734375 -25.164062 12.269531 -25.164062 L 9.78125 -25.164062 C 5.316406 -25.164062 2.074219 -21.925781 2.074219 -17.457031 L 2.074219 -7.707031 C 2.074219 -3.238281 5.316406 0 9.78125 0 Z M 11.011719 -5.695312 C 9.878906 -5.695312 8.964844 -6.605469 8.964844 -7.769531 L 8.964844 -17.394531 C 8.964844 -18.558594 9.878906 -19.472656 11.011719 -19.472656 C 12.171875 -19.472656 13.085938 -18.558594 13.085938 -17.394531 L 13.085938 -7.769531 C 13.085938 -6.605469 12.171875 -5.695312 11.011719 -5.695312 Z M 11.011719 -5.695312 "/></g></g></g><g fill="#ffffff" fill-opacity="1"><g transform="translate(260.491793, 168.13252)"><g><path d="M 4.183594 0 L 6.859375 0 C 8.054688 0 8.964844 -0.914062 8.964844 -2.109375 L 8.964844 -17.425781 C 8.964844 -18.558594 9.878906 -19.472656 11.011719 -19.472656 C 12.171875 -19.472656 13.085938 -18.558594 13.085938 -17.425781 L 13.085938 -2.140625 C 13.085938 -0.945312 14 0 15.195312 0 L 27.933594 0 C 29.128906 0 30.039062 -0.914062 30.039062 -2.109375 L 30.039062 -23.058594 C 30.039062 -24.253906 29.128906 -25.164062 27.933594 -25.164062 L 25.257812 -25.164062 C 24.0625 -25.164062 23.152344 -24.253906 23.152344 -23.058594 L 23.152344 -7.769531 C 23.152344 -6.605469 22.238281 -5.695312 21.074219 -5.695312 C 19.945312 -5.695312 19.03125 -6.605469 19.03125 -7.769531 L 19.03125 -23.027344 C 19.03125 -24.191406 18.117188 -25.164062 16.921875 -25.164062 L 4.183594 -25.164062 C 2.988281 -25.164062 2.074219 -24.253906 2.074219 -23.058594 L 2.074219 -2.109375 C 2.074219 -0.914062 2.988281 0 4.183594 0 Z M 4.183594 0 "/></g></g></g><g fill="#ffffff" fill-opacity="1"><g transform="translate(292.600909, 168.13252)"><g><path d="M 11.074219 0 L 13.839844 0 C 15.195312 0 15.917969 -0.691406 15.917969 -2.042969 L 15.917969 -17.425781 C 15.917969 -18.558594 16.859375 -19.472656 17.992188 -19.472656 L 20.792969 -19.472656 C 22.144531 -19.472656 22.867188 -20.195312 22.867188 -21.546875 L 22.867188 -23.089844 C 22.867188 -24.441406 22.144531 -25.164062 20.792969 -25.164062 L 4.152344 -25.195312 C 2.769531 -25.195312 2.074219 -24.472656 2.074219 -23.121094 L 2.074219 -21.546875 C 2.074219 -20.195312 2.800781 -19.472656 4.152344 -19.472656 L 6.921875 -19.472656 C 8.085938 -19.472656 9.027344 -18.558594 9.027344 -17.425781 L 9.027344 -2.074219 C 9.027344 -0.722656 9.71875 0 11.074219 0 Z M 11.074219 0 "/></g></g></g><g fill="#ffffff" fill-opacity="1"><g transform="translate(170.594973, 211.491847)"><g><path d="M 4.183594 0 L 22.617188 0 C 23.8125 0 24.726562 -0.914062 24.726562 -2.109375 L 24.726562 -3.585938 C 24.726562 -4.78125 23.8125 -5.695312 22.617188 -5.695312 L 11.011719 -5.695312 C 9.878906 -5.695312 8.964844 -6.605469 8.964844 -7.769531 C 8.964844 -8.902344 9.878906 -9.847656 11.011719 -9.847656 L 21.359375 -9.847656 C 22.523438 -9.847656 23.464844 -10.757812 23.464844 -11.984375 L 23.464844 -13.242188 C 23.464844 -14.4375 22.554688 -15.351562 21.359375 -15.351562 L 11.011719 -15.351562 C 9.878906 -15.351562 8.964844 -16.261719 8.964844 -17.394531 C 8.964844 -18.558594 9.878906 -19.472656 11.011719 -19.472656 L 22.617188 -19.472656 C 23.8125 -19.472656 24.726562 -20.382812 24.726562 -21.578125 L 24.726562 -23.058594 C 24.726562 -24.253906 23.8125 -25.164062 22.617188 -25.164062 L 4.183594 -25.164062 C 2.988281 -25.164062 2.074219 -24.253906 2.074219 -23.058594 L 2.074219 -2.109375 C 2.074219 -0.914062 2.988281 0 4.183594 0 Z M 4.183594 0 "/></g></g></g><g fill="#ffffff" fill-opacity="1"><g transform="translate(197.389262, 211.491847)"><g><path d="M 4.183594 0 L 6.859375 0 C 8.054688 0 8.964844 -0.914062 8.964844 -2.109375 L 8.964844 -17.425781 C 8.964844 -18.558594 9.878906 -19.472656 11.011719 -19.472656 C 12.171875 -19.472656 13.085938 -18.558594 13.085938 -17.425781 L 13.085938 -2.140625 C 13.085938 -0.945312 14 0 15.195312 0 L 27.933594 0 C 29.128906 0 30.039062 -0.914062 30.039062 -2.109375 L 30.039062 -23.058594 C 30.039062 -24.253906 29.128906 -25.164062 27.933594 -25.164062 L 25.257812 -25.164062 C 24.0625 -25.164062 23.152344 -24.253906 23.152344 -23.058594 L 23.152344 -7.769531 C 23.152344 -6.605469 22.238281 -5.695312 21.074219 -5.695312 C 19.945312 -5.695312 19.03125 -6.605469 19.03125 -7.769531 L 19.03125 -23.027344 C 19.03125 -24.191406 18.117188 -25.164062 16.921875 -25.164062 L 4.183594 -25.164062 C 2.988281 -25.164062 2.074219 -24.253906 2.074219 -23.058594 L 2.074219 -2.109375 C 2.074219 -0.914062 2.988281 0 4.183594 0 Z M 4.183594 0 "/></g></g></g><g fill="#ffffff" fill-opacity="1"><g transform="translate(229.498378, 211.491847)"><g><path d="M 4.183594 0 L 12.269531 0 C 16.734375 0 19.976562 -3.238281 19.976562 -7.707031 L 19.976562 -17.457031 C 19.976562 -21.925781 16.734375 -25.164062 12.269531 -25.164062 L 4.183594 -25.164062 C 2.988281 -25.164062 2.074219 -24.253906 2.074219 -23.058594 L 2.074219 -2.109375 C 2.074219 -0.914062 2.988281 0 4.183594 0 Z M 11.011719 -5.695312 C 9.878906 -5.695312 8.964844 -6.605469 8.964844 -7.769531 L 8.964844 -17.394531 C 8.964844 -18.558594 9.878906 -19.472656 11.011719 -19.472656 C 12.171875 -19.472656 13.085938 -18.558594 13.085938 -17.394531 L 13.085938 -7.769531 C 13.085938 -6.605469 12.171875 -5.695312 11.011719 -5.695312 Z M 11.011719 -5.695312 "/></g></g></g><g fill="#ffffff" fill-opacity="1"><g transform="translate(251.543912, 211.491847)"><g><path d="M 4.183594 0 L 22.617188 0 C 23.8125 0 24.726562 -0.914062 24.726562 -2.109375 L 24.726562 -3.585938 C 24.726562 -4.78125 23.8125 -5.695312 22.617188 -5.695312 L 11.011719 -5.695312 C 9.878906 -5.695312 8.964844 -6.605469 8.964844 -7.769531 C 8.964844 -8.902344 9.878906 -9.847656 11.011719 -9.847656 L 21.359375 -9.847656 C 22.523438 -9.847656 23.464844 -10.757812 23.464844 -11.984375 L 23.464844 -13.242188 C 23.464844 -14.4375 22.554688 -15.351562 21.359375 -15.351562 L 11.011719 -15.351562 C 9.878906 -15.351562 8.964844 -16.261719 8.964844 -17.394531 C 8.964844 -18.558594 9.878906 -19.472656 11.011719 -19.472656 L 22.617188 -19.472656 C 23.8125 -19.472656 24.726562 -20.382812 24.726562 -21.578125 L 24.726562 -23.058594 C 24.726562 -24.253906 23.8125 -25.164062 22.617188 -25.164062 L 4.183594 -25.164062 C 2.988281 -25.164062 2.074219 -24.253906 2.074219 -23.058594 L 2.074219 -2.109375 C 2.074219 -0.914062 2.988281 0 4.183594 0 Z M 4.183594 0 "/></g></g></g><g fill="#ffffff" fill-opacity="1"><g transform="translate(278.338201, 211.491847)"><g><path d="M 4.183594 0 L 6.859375 0 C 8.054688 0 8.964844 -0.914062 8.964844 -2.109375 L 8.964844 -7.800781 C 8.964844 -8.933594 9.878906 -9.847656 11.011719 -9.847656 L 15.726562 -9.847656 C 16.890625 -9.847656 17.804688 -8.933594 17.804688 -7.800781 L 17.804688 -2.109375 C 17.804688 -0.914062 18.714844 0 19.910156 0 L 22.585938 0 C 23.78125 0 24.691406 -0.914062 24.691406 -2.109375 L 24.691406 -8.585938 C 24.691406 -9.71875 23.875 -10.507812 22.742188 -10.507812 L 22.460938 -10.507812 C 21.328125 -10.507812 20.414062 -11.417969 20.414062 -12.582031 C 20.414062 -13.746094 21.328125 -14.660156 22.460938 -14.660156 L 22.523438 -14.660156 C 23.78125 -14.660156 24.691406 -15.570312 24.691406 -16.828125 L 24.691406 -18.75 C 24.691406 -22.460938 21.988281 -25.164062 18.277344 -25.164062 L 4.183594 -25.164062 C 2.988281 -25.164062 2.074219 -24.253906 2.074219 -23.058594 L 2.074219 -2.109375 C 2.074219 -0.914062 2.988281 0 4.183594 0 Z M 11.011719 -15.351562 C 9.878906 -15.351562 8.964844 -16.261719 8.964844 -17.394531 C 8.964844 -18.558594 9.878906 -19.472656 11.011719 -19.472656 L 15.726562 -19.472656 C 16.890625 -19.472656 17.804688 -18.558594 17.804688 -17.394531 C 17.804688 -16.261719 16.890625 -15.351562 15.726562 -15.351562 Z M 11.011719 -15.351562 "/></g></g></g><g fill="#ffffff" fill-opacity="1"><g transform="translate(305.101032, 211.491847)"><g><path d="M 4.183594 0 L 17.300781 0 C 21.578125 0 24.691406 -3.113281 24.691406 -7.390625 L 24.691406 -7.957031 C 24.691406 -12.238281 21.578125 -15.351562 17.300781 -15.351562 L 11.011719 -15.351562 C 9.878906 -15.351562 8.964844 -16.261719 8.964844 -17.394531 C 8.964844 -18.558594 9.878906 -19.472656 11.011719 -19.472656 L 22.585938 -19.472656 C 23.78125 -19.472656 24.691406 -20.382812 24.691406 -21.578125 L 24.691406 -23.058594 C 24.691406 -24.253906 23.78125 -25.164062 22.585938 -25.164062 L 9.46875 -25.164062 C 5.191406 -25.164062 2.074219 -22.050781 2.074219 -17.773438 L 2.074219 -17.238281 C 2.074219 -12.960938 5.191406 -9.847656 9.46875 -9.847656 L 15.726562 -9.847656 C 16.890625 -9.847656 17.804688 -8.902344 17.804688 -7.769531 C 17.804688 -6.605469 16.890625 -5.695312 15.726562 -5.695312 L 4.183594 -5.695312 C 2.988281 -5.695312 2.074219 -4.78125 2.074219 -3.585938 L 2.074219 -2.109375 C 2.074219 -0.914062 2.988281 0 4.183594 0 Z M 4.183594 0 "/></g></g></g><g fill="#ffffff" fill-opacity="1"><g transform="translate(202.878827, 240.964591)"><g><path d="M 1.554688 0 L 5.941406 0 C 10.089844 0 12.3125 -2.363281 12.3125 -6.875 C 12.3125 -11.273438 10.183594 -13.65625 6.085938 -13.65625 L 1.554688 -13.65625 Z M 3.320312 -1.460938 L 3.320312 -12.1875 L 6.140625 -12.1875 C 9.003906 -12.1875 10.453125 -10.414062 10.453125 -7.058594 C 10.453125 -3.605469 9.144531 -1.460938 6.035156 -1.460938 Z M 3.320312 -1.460938 "/></g></g></g><g fill="#ffffff" fill-opacity="1"><g transform="translate(215.981511, 240.964591)"><g><path d="M 5.160156 0.296875 C 7.246094 0.296875 8.46875 -0.847656 9.089844 -2.613281 L 7.867188 -3.050781 L 7.8125 -3.042969 C 7.390625 -1.59375 6.503906 -0.953125 5.199219 -0.953125 C 3.355469 -0.953125 2.269531 -2.347656 2.230469 -4.347656 L 9.269531 -4.347656 L 9.261719 -5.3125 C 9.261719 -8.144531 7.742188 -10.03125 5.054688 -10.03125 C 2.058594 -10.03125 0.601562 -7.964844 0.601562 -4.929688 C 0.601562 -1.917969 2.097656 0.296875 5.160156 0.296875 Z M 2.242188 -5.597656 C 2.308594 -7.457031 3.375 -8.839844 5.015625 -8.839844 C 6.722656 -8.839844 7.628906 -7.640625 7.648438 -5.597656 Z M 2.242188 -5.597656 "/></g></g></g><g fill="#ffffff" fill-opacity="1"><g transform="translate(225.813296, 240.964591)"><g><path d="M 3.613281 0 L 5.570312 0 L 9.203125 -9.738281 L 7.523438 -9.738281 L 5.0625 -2.699219 L 4.664062 -1.363281 L 4.261719 -2.699219 L 1.820312 -9.738281 L -0.0195312 -9.738281 Z M 3.613281 0 "/></g></g></g><g fill="#ffffff" fill-opacity="1"><g transform="translate(234.996623, 240.964591)"><g><path d="M 5.160156 0.296875 C 7.246094 0.296875 8.46875 -0.847656 9.089844 -2.613281 L 7.867188 -3.050781 L 7.8125 -3.042969 C 7.390625 -1.59375 6.503906 -0.953125 5.199219 -0.953125 C 3.355469 -0.953125 2.269531 -2.347656 2.230469 -4.347656 L 9.269531 -4.347656 L 9.261719 -5.3125 C 9.261719 -8.144531 7.742188 -10.03125 5.054688 -10.03125 C 2.058594 -10.03125 0.601562 -7.964844 0.601562 -4.929688 C 0.601562 -1.917969 2.097656 0.296875 5.160156 0.296875 Z M 2.242188 -5.597656 C 2.308594 -7.457031 3.375 -8.839844 5.015625 -8.839844 C 6.722656 -8.839844 7.628906 -7.640625 7.648438 -5.597656 Z M 2.242188 -5.597656 "/></g></g></g><g fill="#ffffff" fill-opacity="1"><g transform="translate(244.828409, 240.964591)"><g><path d="M 1.476562 0 L 3.175781 0 L 3.175781 -13.789062 L 1.476562 -13.789062 Z M 1.476562 0 "/></g></g></g><g fill="#ffffff" fill-opacity="1"><g transform="translate(249.491596, 240.964591)"><g><path d="M 5.167969 0.296875 C 8.144531 0.296875 9.746094 -1.898438 9.746094 -4.882812 C 9.746094 -7.847656 8.136719 -10.03125 5.167969 -10.03125 C 2.210938 -10.03125 0.589844 -7.847656 0.589844 -4.875 C 0.589844 -1.886719 2.195312 0.296875 5.167969 0.296875 Z M 5.167969 -1 C 3.40625 -1 2.335938 -2.363281 2.335938 -4.875 C 2.335938 -7.382812 3.394531 -8.734375 5.167969 -8.734375 C 6.941406 -8.734375 7.992188 -7.371094 7.992188 -4.875 C 7.992188 -2.355469 6.921875 -1 5.167969 -1 Z M 5.167969 -1 "/></g></g></g><g fill="#ffffff" fill-opacity="1"><g transform="translate(259.828793, 240.964591)"><g><path d="M 1.449219 3.472656 L 3.148438 3.472656 L 3.148438 -1.714844 C 3.546875 -0.621094 4.769531 0.296875 6.410156 0.296875 C 8.917969 0.296875 10.460938 -1.5625 10.460938 -4.875 C 10.460938 -7.980469 8.945312 -10.023438 6.429688 -10.023438 C 4.757812 -10.023438 3.433594 -9.078125 2.929688 -7.726562 L 2.660156 -9.738281 L 1.449219 -9.738281 Z M 5.949219 -0.992188 C 4.40625 -0.992188 3.136719 -2.144531 3.136719 -4.882812 C 3.136719 -7.316406 4.226562 -8.726562 5.941406 -8.726562 C 7.648438 -8.726562 8.707031 -7.363281 8.707031 -4.863281 C 8.707031 -2.230469 7.628906 -0.992188 5.949219 -0.992188 Z M 5.949219 -0.992188 "/></g></g></g><g fill="#ffffff" fill-opacity="1"><g transform="translate(270.938425, 240.964591)"><g><path d="M 5.160156 0.296875 C 7.246094 0.296875 8.46875 -0.847656 9.089844 -2.613281 L 7.867188 -3.050781 L 7.8125 -3.042969 C 7.390625 -1.59375 6.503906 -0.953125 5.199219 -0.953125 C 3.355469 -0.953125 2.269531 -2.347656 2.230469 -4.347656 L 9.269531 -4.347656 L 9.261719 -5.3125 C 9.261719 -8.144531 7.742188 -10.03125 5.054688 -10.03125 C 2.058594 -10.03125 0.601562 -7.964844 0.601562 -4.929688 C 0.601562 -1.917969 2.097656 0.296875 5.160156 0.296875 Z M 2.242188 -5.597656 C 2.308594 -7.457031 3.375 -8.839844 5.015625 -8.839844 C 6.722656 -8.839844 7.628906 -7.640625 7.648438 -5.597656 Z M 2.242188 -5.597656 "/></g></g></g><g fill="#ffffff" fill-opacity="1"><g transform="translate(280.77021, 240.964591)"><g><path d="M 1.449219 0 L 3.136719 0 L 3.136719 -4.921875 C 3.136719 -6.484375 3.824219 -8.6875 5.65625 -8.6875 C 7.542969 -8.6875 7.601562 -7.019531 7.496094 -5.40625 L 8.878906 -5.558594 C 9.144531 -7.476562 8.871094 -10.023438 5.980469 -10.023438 C 4.511719 -10.023438 3.300781 -8.800781 3.011719 -7.457031 L 2.679688 -9.738281 L 1.449219 -9.738281 Z M 1.449219 0 "/></g></g></g><g fill="#ffffff" fill-opacity="1"><g transform="translate(290.001213, 240.964591)"><g><path d="M 4.691406 0.296875 C 7.324219 0.296875 8.726562 -0.894531 8.726562 -2.652344 C 8.726562 -4.109375 7.640625 -4.96875 5.113281 -5.609375 C 3.578125 -6 2.660156 -6.285156 2.660156 -7.324219 C 2.660156 -8.289062 3.386719 -8.820312 4.664062 -8.820312 C 6.113281 -8.820312 6.808594 -8.203125 7.113281 -6.820312 L 8.488281 -7.144531 C 7.992188 -9.011719 6.808594 -10.03125 4.691406 -10.03125 C 2.441406 -10.03125 1.011719 -9.03125 1.011719 -7.324219 C 1.011719 -5.265625 3.070312 -4.824219 4.414062 -4.480469 C 6.390625 -3.96875 7.066406 -3.433594 7.066406 -2.59375 C 7.066406 -1.574219 6.285156 -0.933594 4.71875 -0.933594 C 3.195312 -0.933594 2.296875 -1.601562 2.011719 -3.183594 L 0.667969 -2.851562 C 0.972656 -0.648438 2.554688 0.296875 4.691406 0.296875 Z M 4.691406 0.296875 "/></g></g></g></svg>